<svg width="42" height="28" viewBox="0 0 42 28" fill="none" xmlns="http://www.w3.org/2000/svg">
<path fill-rule="evenodd" clip-rule="evenodd" d="M26.5594 7.99937C25.3014 5.1015 26.6308 1.73252 29.5287 0.474531C32.4265 -0.783457 35.7955 0.545926 37.0535 3.44379L41.2439 13.0967C42.5019 15.9945 41.1725 19.3635 38.2746 20.6215C35.3768 21.8795 32.0078 20.5501 30.7498 17.6522L26.5594 7.99937ZM12.9065 8.6625C11.6751 5.85948 12.9492 2.58898 15.7523 1.35765C18.5553 0.12631 21.8258 1.40041 23.0571 4.20344L29.7369 19.4093C30.9682 22.2123 29.6941 25.4828 26.8911 26.7142C24.0881 27.9455 20.8176 26.6714 19.5862 23.8684L12.9065 8.6625ZM3.80904 4.37367C1.24377 5.48728 0.066959 8.46961 1.18057 11.0349L5.21042 20.3179C6.32403 22.8832 9.30635 24.06 11.8716 22.9464C14.4369 21.8328 15.6137 18.8505 14.5001 16.2852L10.4703 7.00215C9.35664 4.43687 6.37432 3.26006 3.80904 4.37367Z" fill="#FF2626"/>
</svg>
